<svg version="1.2" xmlns="http://www.w3.org/2000/svg" viewBox="0 0 1000 1000" width="1000" height="1000">
	<title>22896449_6709679-ai</title>
	<defs>
		<clipPath clipPathUnits="userSpaceOnUse" id="cp1">
			<path d="m1000 1000h-1000v-1000h1000z"/>
		</clipPath>
		<linearGradient id="g1" x2="1" gradientUnits="userSpaceOnUse" gradientTransform="matrix(0,-274.078,104.749,0,419.159,578.529)">
			<stop offset="0" stop-color="#cf482a"/>
			<stop offset="1" stop-color="#e55816"/>
		</linearGradient>
		<linearGradient id="g2" x2="1" gradientUnits="userSpaceOnUse" gradientTransform="matrix(61.645,0,0,188.159,745.572,390.505)">
			<stop offset="0" stop-color="#d1a9c7"/>
			<stop offset=".994" stop-color="#b32083"/>
		</linearGradient>
		<linearGradient id="g3" x2="1" gradientUnits="userSpaceOnUse" gradientTransform="matrix(61.157,0,0,109.865,778.456,331.844)">
			<stop offset="0" stop-color="#d1a9c7"/>
			<stop offset=".994" stop-color="#b32083"/>
		</linearGradient>
		<linearGradient id="g4" x2="1" gradientUnits="userSpaceOnUse" gradientTransform="matrix(0,-44.388,30.49,0,603.987,925.187)">
			<stop offset=".033" stop-color="#ff9b86"/>
			<stop offset=".953" stop-color="#ffa670"/>
		</linearGradient>
		<linearGradient id="g5" x2="1" gradientUnits="userSpaceOnUse" gradientTransform="matrix(0,-51.475,35.951,0,727.705,911.685)">
			<stop offset=".033" stop-color="#ff9b86"/>
			<stop offset=".953" stop-color="#ffa670"/>
		</linearGradient>
		<linearGradient id="g6" x2="1" gradientUnits="userSpaceOnUse" gradientTransform="matrix(0,-307.795,75.129,0,18.975,888.999)">
			<stop offset="0" stop-color="#596dbd"/>
			<stop offset="1" stop-color="#6172e8"/>
		</linearGradient>
		<linearGradient id="g7" x2="1" gradientUnits="userSpaceOnUse" gradientTransform="matrix(0,-347.193,133.4,0,277.291,890.491)">
			<stop offset="0" stop-color="#596dbd"/>
			<stop offset="1" stop-color="#7483fa"/>
		</linearGradient>
		<linearGradient id="g8" x2="1" gradientUnits="userSpaceOnUse" gradientTransform="matrix(49.292,-105.707,120.108,56.007,549.014,973.003)">
			<stop offset=".006" stop-color="#f5312c"/>
			<stop offset=".996" stop-color="#ff4000"/>
		</linearGradient>
		<linearGradient id="g9" x2="1" gradientUnits="userSpaceOnUse" gradientTransform="matrix(37.423,-80.254,73.702,34.368,711.16,953.979)">
			<stop offset=".006" stop-color="#f5312c"/>
			<stop offset=".996" stop-color="#ff4000"/>
		</linearGradient>
		<linearGradient id="g10" x2="1" gradientUnits="userSpaceOnUse" gradientTransform="matrix(0,-332.935,111.242,0,175.76,886.999)">
			<stop offset=".062" stop-color="#ffffff"/>
			<stop offset=".994" stop-color="#7738ab"/>
		</linearGradient>
		<linearGradient id="g11" x2="1" gradientUnits="userSpaceOnUse" gradientTransform="matrix(0,-167.272,60.432,0,480.775,792.883)">
			<stop offset=".006" stop-color="#7738ab"/>
			<stop offset=".938" stop-color="#ffffff"/>
		</linearGradient>
		<linearGradient id="g12" x2="1" gradientUnits="userSpaceOnUse" gradientTransform="matrix(0,-186.411,93.686,0,554.884,886.175)">
			<stop offset=".006" stop-color="#7738ab"/>
			<stop offset=".938" stop-color="#ffffff"/>
		</linearGradient>
		<linearGradient id="g13" x2="1" gradientUnits="userSpaceOnUse" gradientTransform="matrix(0,-21.133,28.731,0,628.691,906.34)">
			<stop offset="0" stop-color="#d1a9c7"/>
			<stop offset=".994" stop-color="#b331b8"/>
		</linearGradient>
		<linearGradient id="g14" x2="1" gradientUnits="userSpaceOnUse" gradientTransform="matrix(0,-11.315,30.987,0,762.229,897.852)">
			<stop offset="0" stop-color="#d1a9c7"/>
			<stop offset=".994" stop-color="#b331b8"/>
		</linearGradient>
		<linearGradient id="g15" x2="1" gradientUnits="userSpaceOnUse" gradientTransform="matrix(0,-24.194,133.36,0,597.826,965.624)">
			<stop offset=".006" stop-color="#b32083"/>
			<stop offset="1" stop-color="#d1a9c7"/>
		</linearGradient>
		<linearGradient id="g16" x2="1" gradientUnits="userSpaceOnUse" gradientTransform="matrix(14.03,0,0,40.862,736.932,936.884)">
			<stop offset=".006" stop-color="#b32083"/>
			<stop offset="1" stop-color="#d1a9c7"/>
		</linearGradient>
		<linearGradient id="g17" x2="1" gradientUnits="userSpaceOnUse" gradientTransform="matrix(0,-280.357,52.288,0,-145.668,658.921)">
			<stop offset=".033" stop-color="#ff9b86"/>
			<stop offset=".953" stop-color="#ffa670"/>
		</linearGradient>
		<linearGradient id="g18" x2="1" gradientUnits="userSpaceOnUse" gradientTransform="matrix(0,-104.14,41.84,0,480.138,545.844)">
			<stop offset="0" stop-color="#d1a9c7"/>
			<stop offset=".994" stop-color="#b32083"/>
		</linearGradient>
		<linearGradient id="g19" x2="1" gradientUnits="userSpaceOnUse" gradientTransform="matrix(35.07,0,0,73.487,585.31,125.825)">
			<stop offset="0" stop-color="#690a11"/>
			<stop offset="1" stop-color="#4a0030"/>
		</linearGradient>
		<linearGradient id="g20" x2="1" gradientUnits="userSpaceOnUse" gradientTransform="matrix(0,-153.808,98.035,0,538.928,238.529)">
			<stop offset=".033" stop-color="#ff9b86"/>
			<stop offset=".953" stop-color="#ffa670"/>
		</linearGradient>
		<linearGradient id="g21" x2="1" gradientUnits="userSpaceOnUse" gradientTransform="matrix(88.289,0,0,110.373,665.821,110.705)">
			<stop offset="0" stop-color="#690a11"/>
			<stop offset="1" stop-color="#4a0030"/>
		</linearGradient>
		<linearGradient id="g22" x2="1" gradientUnits="userSpaceOnUse" gradientTransform="matrix(3.082,-41.03,32.363,2.431,733.072,201.804)">
			<stop offset=".033" stop-color="#ff9b75"/>
			<stop offset=".953" stop-color="#ff7c61"/>
		</linearGradient>
		<linearGradient id="g23" x2="1" gradientUnits="userSpaceOnUse" gradientTransform="matrix(28.123,0,0,42.46,679.357,133.515)">
			<stop offset="0" stop-color="#690a11"/>
			<stop offset="1" stop-color="#4a0030"/>
		</linearGradient>
		<linearGradient id="g24" x2="1" gradientUnits="userSpaceOnUse" gradientTransform="matrix(1.983,-26.4,22.687,1.704,724.766,196.055)">
			<stop offset=".296" stop-color="#ffffff"/>
			<stop offset=".994" stop-color="#ca00a4"/>
		</linearGradient>
		<linearGradient id="g25" x2="1" gradientUnits="userSpaceOnUse" gradientTransform="matrix(0,-59.421,120.658,0,683.992,126.464)">
			<stop offset="0" stop-color="#796a90"/>
			<stop offset=".996" stop-color="#867ab3"/>
		</linearGradient>
		<linearGradient id="g26" x2="1" gradientUnits="userSpaceOnUse" gradientTransform="matrix(0,-57.079,120.189,0,650.998,134.431)">
			<stop offset="0" stop-color="#796a90"/>
			<stop offset=".996" stop-color="#867ab3"/>
		</linearGradient>
		<linearGradient id="g27" x2="1" gradientUnits="userSpaceOnUse" gradientTransform="matrix(0,-149.641,61.897,0,425.693,469.345)">
			<stop offset="0" stop-color="#5e0445"/>
			<stop offset="1" stop-color="#600366"/>
		</linearGradient>
		<linearGradient id="g28" x2="1" gradientUnits="userSpaceOnUse" gradientTransform="matrix(0,-372.007,161.319,0,250.957,607.987)">
			<stop offset="0" stop-color="#6d0652"/>
			<stop offset="1" stop-color="#600366"/>
		</linearGradient>
		<linearGradient id="g29" x2="1" gradientUnits="userSpaceOnUse" gradientTransform="matrix(0,-193.76,110.78,0,504.763,602.004)">
			<stop offset=".006" stop-color="#7738ab"/>
			<stop offset=".938" stop-color="#ffffff"/>
		</linearGradient>
		<linearGradient id="g30" x2="1" gradientUnits="userSpaceOnUse" gradientTransform="matrix(0,-208.329,63.756,0,406.209,654.493)">
			<stop offset=".033" stop-color="#ff9b86"/>
			<stop offset=".953" stop-color="#ffa670"/>
		</linearGradient>
		<linearGradient id="g31" x2="1" gradientUnits="userSpaceOnUse" gradientTransform="matrix(0,-89.659,58.105,0,590.539,456.006)">
			<stop offset="0" stop-color="#00fff6"/>
			<stop offset=".996" stop-color="#0090ff"/>
		</linearGradient>
		<linearGradient id="g32" x2="1" gradientUnits="userSpaceOnUse" gradientTransform="matrix(0,-36.714,47.6,0,741.422,482.879)">
			<stop offset="0" stop-color="#d1a9c7"/>
			<stop offset=".994" stop-color="#b32083"/>
		</linearGradient>
		<linearGradient id="g33" x2="1" gradientUnits="userSpaceOnUse" gradientTransform="matrix(0,-142.154,64.076,0,526.525,543.3)">
			<stop offset=".062" stop-color="#ffffff"/>
			<stop offset=".994" stop-color="#7738ab"/>
		</linearGradient>
		<linearGradient id="g34" x2="1" gradientUnits="userSpaceOnUse" gradientTransform="matrix(0,-142.565,69.98,0,584.295,414.472)">
			<stop offset="0" stop-color="#cf482a"/>
			<stop offset="1" stop-color="#e55816"/>
		</linearGradient>
		<linearGradient id="g35" x2="1" gradientUnits="userSpaceOnUse" gradientTransform="matrix(0,-154.993,86.905,0,617.162,459.444)">
			<stop offset="0" stop-color="#6d0652"/>
			<stop offset="1" stop-color="#600366"/>
		</linearGradient>
		<linearGradient id="g36" x2="1" gradientUnits="userSpaceOnUse" gradientTransform="matrix(0,-12.824,31.334,0,660.019,136.514)">
			<stop offset="0" stop-color="#c2583c"/>
			<stop offset="1" stop-color="#b12f2a"/>
		</linearGradient>
		<linearGradient id="g37" x2="1" gradientUnits="userSpaceOnUse" gradientTransform="matrix(0,-12.337,18.411,0,616.856,137.658)">
			<stop offset="0" stop-color="#c2583c"/>
			<stop offset="1" stop-color="#b12f2a"/>
		</linearGradient>
		<linearGradient id="g38" x2="1" gradientUnits="userSpaceOnUse" gradientTransform="matrix(0,-16.42,15.371,0,651.475,163.824)">
			<stop offset="0" stop-color="#bd4d2a"/>
			<stop offset="1" stop-color="#680027"/>
		</linearGradient>
		<linearGradient id="g39" x2="1" gradientUnits="userSpaceOnUse" gradientTransform="matrix(0,-16.42,10.837,0,613.359,165.604)">
			<stop offset="0" stop-color="#bd4d2a"/>
			<stop offset="1" stop-color="#680027"/>
		</linearGradient>
		<linearGradient id="g40" x2="1" gradientUnits="userSpaceOnUse" gradientTransform="matrix(0,-56.477,32.302,0,586.624,197.003)">
			<stop offset=".006" stop-color="#ca00a4"/>
			<stop offset="1" stop-color="#ffffff"/>
		</linearGradient>
		<linearGradient id="g41" x2="1" gradientUnits="userSpaceOnUse" gradientTransform="matrix(0,-40.734,31.067,0,609.112,195.412)">
			<stop offset=".006" stop-color="#ca00a4"/>
			<stop offset=".704" stop-color="#ffffff"/>
		</linearGradient>
		<linearGradient id="g42" x2="1" gradientUnits="userSpaceOnUse" gradientTransform="matrix(0,-3.413,7.272,0,643.185,193.84)">
			<stop offset="0" stop-color="#d1a9c7"/>
			<stop offset=".994" stop-color="#b32083"/>
		</linearGradient>
		<linearGradient id="g43" x2="1" gradientUnits="userSpaceOnUse" gradientTransform="matrix(0,-19.925,31.067,0,629.524,203.587)">
			<stop offset="0" stop-color="#ff9fae"/>
			<stop offset=".994" stop-color="#b30083"/>
		</linearGradient>
		<linearGradient id="g44" x2="1" gradientUnits="userSpaceOnUse" gradientTransform="matrix(0,-46.056,36.9,0,633.985,176.577)">
			<stop offset="0" stop-color="#ffffff"/>
			<stop offset=".994" stop-color="#ca00a4"/>
		</linearGradient>
		<linearGradient id="g45" x2="1" gradientUnits="userSpaceOnUse" gradientTransform="matrix(-5.028,-8.841,3.344,-1.902,649.877,210.744)">
			<stop offset="0" stop-color="#ffffff"/>
			<stop offset=".994" stop-color="#ca00a4"/>
		</linearGradient>
		<linearGradient id="g46" x2="1" gradientUnits="userSpaceOnUse" gradientTransform="matrix(0,-53.523,34.567,0,624.822,262.888)">
			<stop offset="0" stop-color="#d1a9c7"/>
			<stop offset=".994" stop-color="#b32083"/>
		</linearGradient>
		<linearGradient id="g47" x2="1" gradientUnits="userSpaceOnUse" gradientTransform="matrix(0,-58.873,49.928,0,636.326,294.853)">
			<stop offset=".006" stop-color="#d2132c"/>
			<stop offset=".996" stop-color="#da2c00"/>
		</linearGradient>
		<linearGradient id="g48" x2="1" gradientUnits="userSpaceOnUse" gradientTransform="matrix(0,-39.651,49.612,0,680.476,125.32)">
			<stop offset=".006" stop-color="#a40084"/>
			<stop offset="1" stop-color="#ffffff"/>
		</linearGradient>
		<linearGradient id="g49" x2="1" gradientUnits="userSpaceOnUse" gradientTransform="matrix(69.4,0,0,128.871,694.901,285.601)">
			<stop offset="0" stop-color="#d1a9c7"/>
			<stop offset=".994" stop-color="#b32083"/>
		</linearGradient>
		<linearGradient id="g50" x2="1" gradientUnits="userSpaceOnUse" gradientTransform="matrix(0,-79.647,54.05,0,591.268,378.19)">
			<stop offset="0" stop-color="#ffffff"/>
			<stop offset=".994" stop-color="#7738ab"/>
		</linearGradient>
		<linearGradient id="g51" x2="1" gradientUnits="userSpaceOnUse" gradientTransform="matrix(0,-34.428,72.808,0,735.133,827.312)">
			<stop offset="0" stop-color="#79acf6"/>
			<stop offset=".996" stop-color="#86c9ff"/>
		</linearGradient>
		<linearGradient id="g52" x2="1" gradientUnits="userSpaceOnUse" gradientTransform="matrix(0,-125.857,10.853,0,-6.517,451.689)">
			<stop offset=".062" stop-color="#ffffff"/>
			<stop offset=".994" stop-color="#7738ab"/>
		</linearGradient>
		<linearGradient id="g53" x2="1" gradientUnits="userSpaceOnUse" gradientTransform="matrix(0,-131.731,42.659,0,574.101,443.873)">
			<stop offset=".006" stop-color="#7738ab"/>
			<stop offset=".938" stop-color="#ffffff"/>
		</linearGradient>
		<linearGradient id="g54" x2="1" gradientUnits="userSpaceOnUse" gradientTransform="matrix(0,-31.235,50.342,0,655.303,822.043)">
			<stop offset="0" stop-color="#79acf6"/>
			<stop offset=".996" stop-color="#86c9ff"/>
		</linearGradient>
		<linearGradient id="g55" x2="1" gradientUnits="userSpaceOnUse" gradientTransform="matrix(0,-134.543,90.947,0,593.583,586.232)">
			<stop offset=".006" stop-color="#7738ab"/>
			<stop offset=".938" stop-color="#ffffff"/>
		</linearGradient>
		<linearGradient id="g56" x2="1" gradientUnits="userSpaceOnUse" gradientTransform="matrix(0,-125.558,20.164,0,219.894,463.925)">
			<stop offset=".006" stop-color="#7738ab"/>
			<stop offset=".938" stop-color="#ffffff"/>
		</linearGradient>
		<linearGradient id="g57" x2="1" gradientUnits="userSpaceOnUse" gradientTransform="matrix(0,-233.171,103.549,0,476.288,885.323)">
			<stop offset=".006" stop-color="#b32083"/>
			<stop offset="1" stop-color="#d1a9c7"/>
		</linearGradient>
		<linearGradient id="g58" x2="1" gradientUnits="userSpaceOnUse" gradientTransform="matrix(0,-219.981,70.8,0,305.562,888.999)">
			<stop offset=".006" stop-color="#b32083"/>
			<stop offset="1" stop-color="#d1a9c7"/>
		</linearGradient>
		<linearGradient id="g59" x2="1" gradientUnits="userSpaceOnUse" gradientTransform="matrix(59.713,0,0,66.235,618.359,815.62)">
			<stop offset=".006" stop-color="#7738ab"/>
			<stop offset=".938" stop-color="#ffffff"/>
		</linearGradient>
		<linearGradient id="g60" x2="1" gradientUnits="userSpaceOnUse" gradientTransform="matrix(0,-122.098,25.535,0,487.691,875.388)">
			<stop offset=".062" stop-color="#ffffff"/>
			<stop offset=".994" stop-color="#7738ab"/>
		</linearGradient>
		<linearGradient id="g61" x2="1" gradientUnits="userSpaceOnUse" gradientTransform="matrix(48.791,0,0,33.274,604.021,899.188)">
			<stop offset=".006" stop-color="#b32083"/>
			<stop offset="1" stop-color="#d1a9c7"/>
		</linearGradient>
		<linearGradient id="g62" x2="1" gradientUnits="userSpaceOnUse" gradientTransform="matrix(35.82,0,0,19.541,749.761,899.633)">
			<stop offset=".006" stop-color="#b32083"/>
			<stop offset="1" stop-color="#d1a9c7"/>
		</linearGradient>
		<linearGradient id="g63" x2="1" gradientUnits="userSpaceOnUse" gradientTransform="matrix(42.819,0,0,64.8,692.532,127.831)">
			<stop offset="0" stop-color="#ffaba4"/>
			<stop offset=".994" stop-color="#600054"/>
		</linearGradient>
		<linearGradient id="g64" x2="1" gradientUnits="userSpaceOnUse" gradientTransform="matrix(28.15,0,0,28.453,706.07,192.624)">
			<stop offset="0" stop-color="#ffaba4"/>
			<stop offset=".994" stop-color="#600054"/>
		</linearGradient>
		<linearGradient id="g65" x2="1" gradientUnits="userSpaceOnUse" gradientTransform="matrix(14.322,0,0,32.528,731.104,184.805)">
			<stop offset="0" stop-color="#ffaba4"/>
			<stop offset=".994" stop-color="#600054"/>
		</linearGradient>
		<linearGradient id="g66" x2="1" gradientUnits="userSpaceOnUse" gradientTransform="matrix(0,-31.235,57.505,0,713.37,700.252)">
			<stop offset="0" stop-color="#79acf6"/>
			<stop offset=".996" stop-color="#86c9ff"/>
		</linearGradient>
		<linearGradient id="g67" x2="1" gradientUnits="userSpaceOnUse" gradientTransform="matrix(0,-12.821,43.293,0,640.525,684.949)">
			<stop offset="0" stop-color="#79acf6"/>
			<stop offset=".996" stop-color="#86c9ff"/>
		</linearGradient>
		<linearGradient id="g68" x2="1" gradientUnits="userSpaceOnUse" gradientTransform="matrix(28.072,0,0,54.635,809.272,386.855)">
			<stop offset="0" stop-color="#d1a9c7"/>
			<stop offset=".994" stop-color="#b32083"/>
		</linearGradient>
	</defs>
	<style>
		.s0 { opacity: .3;mix-blend-mode: multiply;fill: #6d65a9 } 
		.s1 { opacity: .2;mix-blend-mode: soft-light;fill: #c7d8ff } 
		.s2 { fill: #ff1b41 } 
		.s3 { fill: #0e0828 } 
		.s4 { mix-blend-mode: multiply;fill: #88759a } 
		.s5 { fill: #ffffff } 
		.s6 { fill: #95cfff } 
		.s7 { fill: #b82f11 } 
		.s8 { fill: url(#g1) } 
		.s9 { fill: #700011 } 
		.s10 { fill: #81181b } 
		.s11 { opacity: .8;mix-blend-mode: multiply;fill: url(#g2) } 
		.s12 { opacity: .8;mix-blend-mode: multiply;fill: url(#g3) } 
		.s13 { fill: url(#g4) } 
		.s14 { fill: url(#g5) } 
		.s15 { fill: url(#g6) } 
		.s16 { fill: url(#g7) } 
		.s17 { fill: url(#g8) } 
		.s18 { fill: url(#g9) } 
		.s19 { fill: #aba2d7 } 
		.s20 { fill: #e1e3ff } 
		.s21 { opacity: .8;mix-blend-mode: multiply;fill: url(#g10) } 
		.s22 { opacity: .5;mix-blend-mode: multiply;fill: url(#g11) } 
		.s23 { opacity: .5;mix-blend-mode: multiply;fill: url(#g12) } 
		.s24 { opacity: .8;mix-blend-mode: multiply;fill: url(#g13) } 
		.s25 { opacity: .8;mix-blend-mode: multiply;fill: url(#g14) } 
		.s26 { opacity: .6;mix-blend-mode: multiply;fill: url(#g15) } 
		.s27 { opacity: .8;mix-blend-mode: multiply;fill: url(#g16) } 
		.s28 { fill: #ea594d } 
		.s29 { fill: url(#g17) } 
		.s30 { opacity: .8;mix-blend-mode: multiply;fill: url(#g18) } 
		.s31 { fill: #ffc79f } 
		.s32 { fill: #3b0020 } 
		.s33 { fill: url(#g19) } 
		.s34 { opacity: .7;mix-blend-mode: multiply;fill: #6d65a9 } 
		.s35 { fill: url(#g20) } 
		.s36 { fill: url(#g21) } 
		.s37 { fill: url(#g22) } 
		.s38 { fill: url(#g23) } 
		.s39 { opacity: .3;mix-blend-mode: multiply;fill: url(#g24) } 
		.s40 { opacity: .7;mix-blend-mode: multiply;fill: #eb657c } 
		.s41 { fill: url(#g25) } 
		.s42 { fill: url(#g26) } 
		.s43 { fill: url(#g27) } 
		.s44 { fill: url(#g28) } 
		.s45 { opacity: .7;mix-blend-mode: multiply;fill: #6d4ca9 } 
		.s46 { opacity: .5;mix-blend-mode: multiply;fill: url(#g29) } 
		.s47 { fill: url(#g30) } 
		.s48 { fill: url(#g31) } 
		.s49 { opacity: .3;mix-blend-mode: multiply;fill: #a965a6 } 
		.s50 { opacity: .8;mix-blend-mode: multiply;fill: url(#g32) } 
		.s51 { opacity: .8;mix-blend-mode: multiply;fill: url(#g33) } 
		.s52 { fill: url(#g34) } 
		.s53 { fill: #420011 } 
		.s54 { fill: url(#g35) } 
		.s55 { fill: url(#g36) } 
		.s56 { fill: url(#g37) } 
		.s57 { fill: #ffeaea } 
		.s58 { fill: url(#g38) } 
		.s59 { opacity: .8;mix-blend-mode: multiply;fill: #bd4f81 } 
		.s60 { fill: url(#g39) } 
		.s61 { fill: #9d1d36 } 
		.s62 { opacity: .3;mix-blend-mode: multiply;fill: url(#g40) } 
		.s63 { opacity: .2;mix-blend-mode: multiply;fill: url(#g41) } 
		.s64 { opacity: .8;mix-blend-mode: multiply;fill: url(#g42) } 
		.s65 { opacity: .8;mix-blend-mode: multiply;fill: url(#g43) } 
		.s66 { opacity: .3;mix-blend-mode: multiply;fill: #eb657c } 
		.s67 { opacity: .5;mix-blend-mode: multiply;fill: #eb657c } 
		.s68 { opacity: .3;mix-blend-mode: multiply;fill: url(#g44) } 
		.s69 { fill: #c9383c } 
		.s70 { opacity: .5;mix-blend-mode: multiply;fill: url(#g45) } 
		.s71 { opacity: .8;mix-blend-mode: multiply;fill: url(#g46) } 
		.s72 { opacity: .7;mix-blend-mode: multiply;fill: #bd4a7c } 
		.s73 { fill: url(#g47) } 
		.s74 { opacity: .5;mix-blend-mode: multiply;fill: url(#g48) } 
		.s75 { opacity: .3;mix-blend-mode: multiply;fill: #bd337c } 
		.s76 { opacity: .8;mix-blend-mode: multiply;fill: url(#g49) } 
		.s77 { opacity: .6;mix-blend-mode: multiply;fill: url(#g50) } 
		.s78 { fill: url(#g51) } 
		.s79 { opacity: .8;mix-blend-mode: multiply;fill: #6d65a9 } 
		.s80 { opacity: .8;mix-blend-mode: multiply;fill: url(#g52) } 
		.s81 { opacity: .8;mix-blend-mode: multiply;fill: url(#g53) } 
		.s82 { fill: url(#g54) } 
		.s83 { opacity: .5;mix-blend-mode: multiply;fill: url(#g55) } 
		.s84 { opacity: .8;mix-blend-mode: multiply;fill: url(#g56) } 
		.s85 { opacity: .3;mix-blend-mode: soft-light;fill: #ffe3b5 } 
		.s86 { opacity: .3;mix-blend-mode: multiply;fill: url(#g57) } 
		.s87 { opacity: .3;mix-blend-mode: multiply;fill: url(#g58) } 
		.s88 { opacity: .8;mix-blend-mode: multiply;fill: url(#g59) } 
		.s89 { opacity: .3;mix-blend-mode: soft-light;fill: #a7d9b5 } 
		.s90 { opacity: .5;mix-blend-mode: multiply;fill: #6d65a9 } 
		.s91 { opacity: .6;mix-blend-mode: multiply;fill: url(#g60) } 
		.s92 { opacity: .2;mix-blend-mode: multiply;fill: #e2455e } 
		.s93 { opacity: .5;mix-blend-mode: multiply;fill: #e2455e } 
		.s94 { opacity: .6;mix-blend-mode: multiply;fill: url(#g61) } 
		.s95 { opacity: .6;mix-blend-mode: multiply;fill: url(#g62) } 
		.s96 { opacity: .5;mix-blend-mode: multiply;fill: url(#g63) } 
		.s97 { opacity: .5;mix-blend-mode: multiply;fill: url(#g64) } 
		.s98 { opacity: .5;mix-blend-mode: multiply;fill: url(#g65) } 
		.s99 { opacity: .8;mix-blend-mode: multiply;fill: #c75eff } 
		.s100 { fill: #ac002c } 
		.s101 { opacity: .3;fill: #6fe5ff } 
		.s102 { opacity: .8;mix-blend-mode: multiply;fill: #bd4a7c } 
		.s103 { fill: url(#g66) } 
		.s104 { mix-blend-mode: multiply;fill: #6d65a9 } 
		.s105 { fill: url(#g67) } 
		.s106 { opacity: .5;mix-blend-mode: soft-light;fill: #ffe3b5 } 
		.s107 { opacity: .8;mix-blend-mode: multiply;fill: url(#g68) } 
		.s108 { opacity: .7;mix-blend-mode: multiply;fill: #b565a9 } 
		.s109 { opacity: .3;mix-blend-mode: soft-light;fill: #ffffb5 } 
		.s110 { opacity: .5;mix-blend-mode: soft-light;fill: #ffd6a6 } 
		.s111 { opacity: .3;mix-blend-mode: multiply;fill: #b565a9 } 
		.s112 { mix-blend-mode: multiply;fill: #9275ba } 
		.s113 { fill: #c27579 } 
	</style>
	<g id="objects">
		<g id="&lt;Clip Group&gt;" clip-path="url(#cp1)">
			<g id="&lt;Group&gt;">
				<path id="&lt;Path&gt;" class="s0" d="m713.9 795.3c158.7 7.3 235.5-240.4 213.2-325.4-22.3-85.1-308.2-75.4-416.9-38.4-108.7 37.1-102.8 349.9 203.7 363.8z"/>
				<path id="&lt;Path&gt;" class="s1" d="m17.2 970.9c-31.1-48 945.3-24.4 966.5 6.8 21.2 31.2-944.6 26.8-966.5-6.8z"/>
				<g id="&lt;Group&gt;">
					<path id="&lt;Path&gt;" class="s2" d="m571.6 124.8c-0.6 0.8-0.7 8.9 0 10.9 0.8 1.9 10.4 0.9 11.5 0.5 1-0.5 0.5-10 0.4-11.4-0.2-1.3-10.6-1.6-11.9 0z"/>
				</g>
				<g id="&lt;Group&gt;">
					<path id="&lt;Path&gt;" class="s3" d="m1109.3 169.8h17.9l-15 325.7-16.6 1.5z"/>
					<path id="&lt;Path&gt;" class="s2" d="m825.4 204.3c-0.6 0.7-0.8 8.9 0 10.8 0.8 1.9 11.4 1 12.6 0.5 1.1-0.4 0.6-10 0.5-11.3-0.2-1.4-11.7-1.6-13.1 0z"/>
				</g>
				<path id="&lt;Path&gt;" class="s4" d="m604 953.5c-173.6 21.6-196.3 35.5-48 39 148.3 3.6 338 0.6 367-2.2 29-2.8-80.4-26.7-184.2-29-103.7-2.4-134.8-7.8-134.8-7.8z"/>
				<g id="&lt;Group&gt;">
					<path id="&lt;Path&gt;" class="s5" d="m582.6 592.1c0 0-1.7-77.8-2.8-92.1-1.1-14.3 13.4-40.4 9.8-44.9-3.5-4.5-5.7-9.8-5.3-13.6 0.3-3.8-3.9-2.2-8.7-7.8-4.7-5.6 18.7-103.5 20.9-116.8 2.3-13.3 40.3-46.2 43.8-54 3.6-7.8 4.6-19.6 2.4-20.3-2.2-0.8-10.4 3.8-14.5 0-4-3.8-27.2-70.1-27.5-78.1-0.3-7.9 0.8 34.8-8.7 40.5-9.5 5.7-15.1-44.4-10.8-51.5 4.3-7 18.5-4.9 20.5-27.7 2-22.8 12.3-42.1 18.6-45.5 6.2-3.3 14.5-2.1 29.1-6.6 14.7-4.5 32.9-8.3 46.9-6.7 14 1.7-24.1 91.6-24.1 91.6l-4.8 135.6-36.7 199.6-20.1 20.5z"/>
					<path id="&lt;Path&gt;" class="s6" d="m758.8 88.6c-0.2 6.6-16.5 34.6-18.1 38.6-1.7 4-15.5-2-17.1 0.6-1.6 2.7 10.6 12.1 23.6 37.3 13 25.2 10.8 38.5 7.6 42.4-3.2 4-7.5-17.9-8.6-17.1-1.1 0.9 1.3 20.8-3.3 26.9-4.5 6.2-13.3 2.3-17.3 3.1-4 0.7-15 3.5-21.5 1.9-6.4-1.7-18.4 2.1-16.3 8.8 2.1 6.7 29.7 36.8 34.5 39.9 4.8 3.1 7.2-2.3 17.6 0 10.4 2.3 25.9 25.5 26 33 0.1 7.4 13.2 16.4 39.6 37.9 26.4 21.6 43.5 74.4 42 91-1.5 16.7-15.4 8.9-17.4 17.5-2 8.6 6.8 66.6 0 92.9-6.8 26.3-30 32.4-30 32.4l-68.1-264.8-64.6-16.7 2.4-135 28.8-56.2z"/>
					<path id="&lt;Path&gt;" class="s7" d="m764.3 309.7c1.9 9.2 45.5 31.1 72.2 87.9 23 49.2-14.9 44.1-14.9 44.1l-65.4-135.3z"/>
					<path id="&lt;Path&gt;" class="s8" d="m754.1 304.5c0 0 36.4 35 50 69.6 13.7 34.5 23.5 78.5 25.8 131.2 2.3 52.6-15.2 68.9-31.1 71.9-15.9 3.1-44.3 0.8-67-7.3-22.8-8.2 22.3-265.4 22.3-265.4z"/>
					<path id="&lt;Path&gt;" class="s9" d="m769.8 351.4c10.1 20.5 20.1 16.7 15.3-3.3-4.8-19.9-18.4-30.2-28.9-41.7-10.4-11.5 13.6 45 13.6 45z"/>
					<path id="&lt;Path&gt;" class="s10" d="m760.5 571.6c-7.1-22.5 33.8-89.1 48.2-96.3 14.4-7.2 22 50.7 11.3 80.1-10.6 29.4-59.5 16.2-59.5 16.2z"/>
					<path id="&lt;Path&gt;" class="s11" d="m745.6 573.1c0 0 26 6.7 39.6 5.4 13.6-1.3 22-8.7 22-8.7 0 0-36.5 4.1-42.9-1.6-6.4-5.7 38.7-88.4 38.7-88.4 0 0-24.7 24.2-32.2 41.1 0 0 20.6-41.4 29.3-59.2 8.6-17.8-22.6-71.2-22.6-71.2z"/>
					<path id="&lt;Path&gt;" class="s12" d="m778.5 331.8c0 0 41.5 34.8 56.7 73.3 15.2 38.4-13.6 36.6-13.6 36.6 0 0-6.6-66.1-43.1-109.9z"/>
					<path id="&lt;Path&gt;" class="s13" d="m623.8 880.8c0 0-0.8 11.4-2.6 20.2-1.7 8.9 10.1 22 17.7 24 7.6 2 10.6-13.4 11.1-16.9 0.5-3.6 1.5-27.3 1.5-27.3z"/>
					<path id="&lt;Path&gt;" class="s14" d="m746.6 881.4c0 0 6.4 11.9 6 30.3l29.9-3.2c0 0-5.7-33.2-7.2-45.4-1.5-12.2-28.7 18.3-28.7 18.3z"/>
					<path id="&lt;Path&gt;" class="s15" d="m687 632.9c0 0-0.7 4.3-1.6 12.3q-0.2 1.1-0.3 2.3c-0.8 6.3-1.6 14.5-2.4 24.5q0 0.3 0 0.7c-1.6 20.1-3 47.3-2.8 80.4 0.1 14.7 0.1 28.6 0.1 41.4 0 52.3-0.6 86.3-0.6 86.3-28.6 17-63.2 2.6-66.5 0-3.3-2.7 2.5-123.5 2.3-131.6-0.2-4-0.8-8-1.3-12.1-0.6-4.3-1.1-8.7-1-12.9 0.3-8.4 4.3-8.1 5.3-34.9 0.7-18.8 5.6-54.1 8.4-73.4 0.6-3.9 1.1-7.1 1.5-9.4l0.3-2 0.1-1 0.2-1 34.5-13.1 21.7-8.2 0.6 13.8 0.5 13.7z"/>
					<path id="&lt;Path&gt;" class="s16" d="m795.8 877.2c-18.6 18.1-66.7 14.2-70.1 8.7-0.8-1.1-2.1-4.9-3.7-10.5-6.1-20.6-16.9-66.1-21.7-103-6.1-47-5.3-79.6-13.3-119.5-0.5-2.6-1.1-5.2-1.6-7.7-7.3-30.6-19.2-50.8-22.2-55.8q-0.8-1.2-0.8-1.2c0 0 58.7-52.6 66.7-43.9 8 8.7 9.5 50.8 15.9 94.3 6.5 43.6 26.2 102 33.5 132.3 7.3 30.3 17.3 106.3 17.3 106.3z"/>
					<path id="&lt;Path&gt;" class="s17" d="m666.7 965.7h-133.4q0 0 0-0.1c0.7-5.3 17.7-14.6 34.6-24.1 12.1-6.8 24.2-13.7 30.3-19.3 2.2-1.9 4.1-3.9 5.8-5.8 10.2-11.4 14.2-21.4 17.2-15.4 0 0 8.6 18.4 18.3 20.3 9.6 1.9 10-18.3 10-18.3 0 0 2.5-1 3.2 2.6 0.6 2.7-2.4 7.4-0.2 18 0.7 3.2 1.8 6.9 3.6 11.3q0.2 0.5 0.4 1c8.5 19.8 10.2 29.8 10.2 29.8z"/>
					<path id="&lt;Path&gt;" class="s18" d="m804.1 963.4c-17.4-6.6-64.6 3.8-64.6 3.8 0 0 3.4-9.1 5.5-21.8 1.3-8 3.2-19.1 4.8-26.5 0.9-4.4 1.6-7.5 2-8 0 0 1.6 1 4-1.7 2.5-2.6 19.2-21.6 28.8 2.5q0.5 1.2 1 2.4c9.3 23.4 18.5 49.3 18.5 49.3z"/>
					<path id="&lt;Path&gt;" class="s19" d="m533.3 965.7c0 0-6.6 9.6-6.6 11.6 0 2 96.3-3.9 144 0 0 0-0.8-7.8-4-11.6-3.2-3.8-133.4 0-133.4 0z"/>
					<path id="&lt;Path&gt;" class="s19" d="m739.5 967.2c-1.6 1.5-2.6 10.5-2.6 10.5h71c0 0-0.5-10.8-3.8-14.3-3.3-3.5-39.5-4.5-64.6 3.8z"/>
					<path id="&lt;Path&gt;" class="s20" d="m594.8 964.3l-61.5 1.3c0.7-5.3 17.7-14.6 34.6-24.1 0 0 20.4 8.6 26.9 22.8z"/>
					<path id="&lt;Path&gt;" class="s20" d="m666.7 965.7h-30l-0.4-1.7c0 0 10.2-20.1 19.8-29.1q0.2 0.5 0.4 1c8.5 19.8 10.2 29.8 10.2 29.8z"/>
					<path id="&lt;Path&gt;" class="s20" d="m744.6 965.7c0 0 12.5-24.8 32.2-27.8 19.8-3 27.3 25.5 27.3 25.5 0 0-19.3-6.8-59.5 2.3z"/>
					<path id="&lt;Path&gt;" class="s21" d="m729.6 554.1c0 0-1.3 36.4-17.7 44-9.6 4.4-19.5 7.9-25.9 10.6-4.5 2-7.2 3.5-6.6 4.6 1.3 2.5 5.4 28.6 5.7 31q0.1 0.2 0.1 0.2c0 0-0.1 1-0.1 3-2.2 19-5.5 55.7-5.2 105.6 0.1 14.7 0.1 28.6 0.1 41.4-1.7 38.6-3.8 71-5.8 76.5-5.5 14.9-25.1 18-27.7 14.9-2.7-3 9.5-12.7 20.2-74.5 10.7-61.7 18.2-162.5 4.8-121.4-13.4 41.1-51.5 135.5-52.7 132.8-1.1-2.6-1.1-15.9 11.9-48.1 12.9-32.2 44.6-136.8 37-144.9-7.6-8.1-41.1-13.9-41.1-13.9l1.5-9.4 0.3-2 0.1-1 0.2-1c0 0 14.2-1 39-1.4q0.9 0 1.8-0.1c5-0.5 10.5-2.7 16-6 21.6-12.7 44.1-40.9 44.1-40.9z"/>
					<path id="&lt;Path&gt;" class="s22" d="m682.1 625.6c0 0 21.5 75.3 39.7 112.7 18.2 37.4 20.7 54.6 20.7 54.6 0 0-13.4-5.7-27.8-53.1-14.4-47.3-32.6-114.2-32.6-114.2z"/>
					<path id="&lt;Path&gt;" class="s23" d="m693.5 699.8c0 0 13.7 99.1 38.9 140.8 25.1 41.7 52.4 35.7 54.7 36.4 2.3 0.8-33.4 17.5-50.4 3.8-17.1-13.7-40.2-120.7-43.2-181z"/>
					<path id="&lt;Path&gt;" class="s24" d="m622.1 896c0 0 5.4 7.8 15.5 10.1 10.2 2.2 13.2-10.1 13.2-10.1v-7c0 0-18.9-0.5-27.4-3.8z"/>
					<path id="&lt;Path&gt;" class="s25" d="m751.6 897.7c0 0 19 1.7 28.2-5.6l-0.9-5.6c0 0-18.2 4.8-30.1 4z"/>
					<path id="&lt;Path&gt;" class="s26" d="m535.3 962.3c2.8 3.6 57.7-9 83.1-18.6 25.3-9.6 28.8 14 33.1 17.1 4.3 3.1 15.2 3.2 15.2 3.2 0 0-101.8 0.3-133.4 1.6z"/>
					<path id="&lt;Path&gt;" class="s27" d="m746.6 939.9c8.3-13.2 2.6 20.9 0.8 27.3-1.8 6.4-10.5 10.5-10.5 10.5 0 0 0.7-4.6 4.1-15.4 3.4-10.9 5.6-22.4 5.6-22.4z"/>
					<path id="&lt;Path&gt;" class="s28" d="m605.9 602.5c-2.6-0.1-6.4 12.2-5.8 16.3 0.7 4.2 10.5 11.6 12.3 18.6 1.8 6.9-1.3 10.1-1.3 10.1 0 0-1.1 9.7-7.6 8.6-6.5-1.2-13.9-29.4-13.9-29.4l11.7-38.4 5.5 9.4z"/>
					<path id="&lt;Path&gt;" class="s29" d="m632.1 413.4c0 0-0.3 17.2-1.4 36.5-0.9 14-2.2 29.1-4.3 39.4-3.2 16.1-11.8 39.9-17.3 56.5-2.9 9-4.9 15.9-4.7 18.4 0.7 6.5 13.7 14 16.4 17.2q0.4 0.5 0.5 0.9c0.2 2.3-2.7 15.6-1.9 23.2q0.1 1.2 0.4 2.5 0.1 0 0 0c1.7 7.2 6.9 15.6 6.6 17.6-0.4 2.3-5.3 7.4-6.8 7.9-1.5 0.6-10.1-2.4-12-9.8-1.3-5.2-0.2-7.6 0.2-11 0.1-1.4 0.2-3.1-0.2-5.3-1.1-6.8-3.8-10.3-4-10.6q-0.1-0.1-0.1-0.1 0 0 0 0.1 0 0.1-0.1 0.2c-0.9 2.9-8.4 26.5-8.2 28.6 0.3 2.3 13.1 11.4 12.4 18.9-0.8 7.4-5.3 15.7-8.9 14.2-3.5-1.5-19.4-25.2-18.9-29.5 0.5-4.3 3.3-14.4 2.8-37.1-0.5-22.8-1.3-83.4 0-94.5 0.8-7.2 3.6-14 6.2-22.9 1.5-4.9 2.9-10.5 3.9-17.1 0.5-3.4 1-8.4 1.6-14.1 2.3-25 4.4-64.9 4.4-64.9z"/>
					<path id="&lt;Path&gt;" class="s30" d="m630.7 449.9c-0.9 14-2.2 29.1-4.3 39.4-3.2 16.1-11.8 39.9-17.3 56.5-1.4 0.1-2.5-2.3-2.5-8.8-0.3-23.3-6.9-77.5-17.8-62.3 1.5-4.9 2.9-10.5 3.9-17.1 0.5-3.4 1-8.4 1.6-14.1l34.8-1.8c0 0 0.6 3.5 1.6 8.2z"/>
					<path id="&lt;Path&gt;" class="s31" d="m589.1 647c1-5.3 10.4 5.2 12.2 7.4 1.7 2.3-3 3-4 3.2-1 0.3-8.5-9.3-8.2-10.6z"/>
					<path id="&lt;Path&gt;" class="s28" d="m660.9 281.3c0 0-12.1-5-13.7-16.2-1.5-11.1 3.8-18.2 3.8-18.2z"/>
					<path id="&lt;Path&gt;" class="s32" d="m663.8 218.5c8.1 14.3 36.1 2.8 52.4-3.1 16.3-5.8 23.5 0 23.1-21.8-0.3-21.8-40.7-60.1-40.7-60.1l-75.6 7 39.8 76z"/>
					<path id="&lt;Path&gt;" class="s33" d="m611.1 125.8c0 0-22.6 26.5-25.2 45.1-2.7 18.7 5 29.4 6.8 28.3 1.7-1-1.3-38.9 12.4-60.9 0 0-5.9 39.4 9.3 58.4 15.2 18.9-3.3-70.9-3.3-70.9z"/>
					<path id="&lt;Path&gt;" class="s28" d="m648.8 233c0 0 1.9 38.6 10.8 50.8 8.9 12.3 27.4-24.1 28.2-41.5 0 0-4.8-23-5.8-32.9-1-9.9-33.2 23.6-33.2 23.6z"/>
					<path id="&lt;Path&gt;" class="s34" d="m723.3 599.9c0 0-13.5 28.7-8.6 56.3 4.9 27.5 42.6 38.6 42.6 38.6 0 0-8.6-36.1-14.8-61.8-6.2-25.8-19.2-33.1-19.2-33.1z"/>
					<path id="&lt;Path&gt;" class="s35" d="m687.8 201.6c-1.5 2.3-3.3 4.7-5.2 7v0.1q0 0-0.1 0.1c-13.5 16.4-35.4 32.6-46.6 29.3-2.7-0.8-5.3-2.7-7.7-5.5-9-10.2-15.5-31.2-17.1-40.8-2-12.2 2-18.9 3.3-27.6 1.3-8.8-3.3-32.5-3.3-38.4 0-5.9 12.9-36.7 44.9-40.8 20.8-2.6 48.1 13.6 51.9 25.7 3.8 12.1-8 72.5-20.1 90.9z"/>
					<path id="&lt;Path&gt;" class="s36" d="m753.7 207.5c-1.7 1.1-2.6-9.8-7.9-32.7-6.8-29.4-18.4-29.2-18.4-29.2 10 11.9 14.9 26.7 16.9 39q0 0.1 0 0.2c1.8 11 1.2 20 0 23.2-2.7 7-16 14.4-12.7 4.6 1.8-5.4 2.4-10.9 2.6-14.7 0.2-3.2 0-5.3 0-5.3 0 0 0.1 0.9 0 2.2 0 4.3-0.8 13.6-5.5 19.4-6.2 7.8-28.4 8.7-21.2 3.9q0.5-0.3 1.1-0.9 0-0.1 0-0.1c7.6-8 21.3-47.7-1.1-56.6-23.7-9.5-41.7-49.8-41.7-49.8 0 0 31.2-0.2 58.4 23.7 28 24.8 31.2 72.1 29.5 73.1z"/>
					<path id="&lt;Path&gt;" class="s37" d="m698.3 165.6c0 0 11.1-9.5 22-5.3 10.8 4.2 3.2 23.3-6.1 31.8-9.2 8.4-16.3 7.8-19.6 6-3.4-1.8-3-9.5-3-9.5 0 0 2-17.1 6.7-23z"/>
					<path id="&lt;Path&gt;" class="s38" d="m679.4 133.5c0 0 11.8 15.3 12.2 25.7 0.4 10.3-1.5 13.3-1.2 16.4 0.4 3 5.7-12 17.1-15.1z"/>
					<path id="&lt;Path&gt;" class="s39" d="m699.4 176.8c0 0 9.9-9.5 18.3-7.7 8.4 1.7 3.4 13.3 0 18.1-3.5 4.9-9.3 7.6-9.3 7.6 0 0 7.9-7.3 10.4-12.5 2.4-5.2 2.8-9.7-1.3-10.8-4.1-1.2-2.8 8.4-5.6 14.4-2.8 6.1-7.2 6.2-10.7 4.7-3.6-1.5 3.6-3.4 7.3-9.8 3.7-6.4-2.7-8.1-9.1-4z"/>
					<path id="&lt;Path&gt;" class="s40" d="m705.5 172.2c5.7-1.7 8.2 3.8 6.9 10.2-1.3 6.5-7.5 7.9-9.6 7.1-2-0.7 7-8.3 7.1-12.6 0.1-4.3-7.2-2.9-7.7-2.5-0.4 0.4 3.3-2.2 3.3-2.2z"/>
					<path id="&lt;Path&gt;" class="s41" d="m638.3 80.1c0 0 15.8-9.1 49.5-12.5 33.7-3.4 68.6 10.3 70.9 17.1 2.2 6.9-8.9 24.1-18.7 36.9-9.9 12.9-23.7-3.7-29.2-6.5-5.4-2.8-71.1-33.9-71.1-33.9z"/>
					<path id="&lt;Path&gt;" class="s42" d="m605.1 133.5c-2.9 0.6 4.8-31 11.8-42.9 7.1-11.9 59.9-20.9 85.3-3.8 25.4 17.2 24.4 31.6 20.1 35.1-4.3 3.5 1.9 12.5 1.9 12.5 0 0-21.9-22.1-62.6-22.6-40.6-0.5-48.7 9.8-50.2 12.1-1.1 1.6 1.5 8.1-6.3 9.6z"/>
					<path id="&lt;Path&gt;" class="s43" d="m600 319.7c-4.3 8.6-16.8 87-24.4 110.1 0 0 1.7 6.4 11.2 8.5l-0.6 7.1c0 0 28.2 25.6 45.9 23.9 17.7-1.8-13.4-108.2-13.4-108.2z"/>
					<path id="&lt;Path&gt;" class="s44" d="m752.2 552.6c-5.7 3-6.4-10.6-18.6-3.9-12.1 6.7-25 38.8-50 52.4-25 13.6-58.3 3.4-59 0-0.3-1.7 0.6-3.4 1-9.3 0.5-6.4 0.4-17.7-2.6-39.2-2.9-21.2-3.9-57.9-4.2-88.5v-0.2c-0.2-28.8 0.2-52.2 0.2-52.2-12.2-29.9-22.8-82.4-19-92 3.8-9.6 45.5-54.1 46.2-61.1 0.8-7.1 3.8-11.7 3.8-11.7v5.1c0 0-2.2 28.5 14.4 26.8 16.7-1.8 22.2-42.5 22.2-42.5 0 0-0.2-0.8 1.2 0 1 0.6 2.1 6.4 8.2 14.2v0.1c2.2 2.7 5 5.8 8.6 9 13.9 12.1 36.9 21.4 49.5 44.8 12.6 23.4 3.8 245.2-1.9 248.2z"/>
					<path id="&lt;Path&gt;" class="s45" d="m652.9 608c14.1-1.2 46.8-20.4 53.7-29.3 7-9 17.4-21 17.4-21l-1.9 5.1c0 0-18.4 20.8-27.3 34.3-8.9 13.5-41.9 10.9-41.9 10.9z"/>
					<path id="&lt;Path&gt;" class="s46" d="m729.6 526.7l-2 13.8c0 0-14.8 8.7-26.5 29.9-11.8 21.3-49.3 42.7-72 25.1q-1.9-1.4-3.5-3.7c0.5-6.4 0.4-17.7-2.6-39.2-2.9-21.2-3.9-57.9-4.2-88.5v-0.2l1-55.7c-0.1 14.5-0.8 144.5 14.6 173 16.3 30.2 51.1 7.8 70.8-21.9 19.7-29.8 24.4-32.6 24.4-32.6z"/>
					<path id="&lt;Path&gt;" class="s47" d="m776.2 480.8c-0.7 3.2-1.6 6.3-2.8 9.3-7.2 18.6-29.9 80.4-29 81.8 1 1.5 4.8 2.2 8 11.8 3.2 9.5 5.9 30.3 5.9 30.3 9.5-0.1 14.4 4.2 13.2 9.2-1.1 5.1-4.7 4.9-4.7 4.9 0 0-0.8 4-2.8 4.7-2.1 0.7-10.5-0.5-16.9 0.2-6.4 0.7-15.2-0.2-15.2-0.2 0 0 11 7.4 9.9 13.6-1.1 6.2-6.4 11.1-11.2 5.8-4.3-4.7-12.9-12-14.6-15.8l-0.2-0.7q-0.1-0.2-0.1-0.4c0-3.3 1-5 1-16.1 0-11-2-31.3-2-34.6 0-3.4 14.9-40 15.9-75.2 0.4-12.1 0.8-23.1 1.2-32.3 0.8-17.6 1.5-28.8 1.5-28.8 7.1-3.4 34.5-1.9 42.5-1.4 1.4 0.1 2.2 0.2 2.2 0.2 0 0 0.1 1 0.2 2.9 0.4 5.5 0.7 18.4-2 30.8z"/>
					<path id="&lt;Path&gt;" class="s48" d="m630.7 372.4c0 0 5.6 54 6.8 82.7l9.7 0.9v-36.6l5-1.7 1.4 11.3 15.1-2.4v-11.2l4.3-1.1 1.2 41.7 13.4-1.2 1.2-88.5-26.3 4.7 0.2 27.5h-6.8l-2.3-26.7z"/>
					<path id="&lt;Path&gt;" class="s49" d="m620.3 418.4c-2.1-22.7-4.3-39.3 16.3-23.9 20.5 15.4 36.4 14.3 58.8-14.9 22.4-29.3 19.1 51.1 6.8 79.8-12.3 28.8-34.7 49.8-50 43.8-15.3-5.9-31.9-84.8-31.9-84.8z"/>
					<path id="&lt;Path&gt;" class="s50" d="m779.4 451.4l-1.9 31.5c0 0-0.4-0.8-1.3-2.1-1.2-1.8-3.4-4.6-6.3-7.4-4.8-4.7-37.3-19.7-38 3.7h-0.1c0.8-17.6 1.5-28.8 1.5-28.8 7.1-3.4 34.5-1.9 42.5-1.4l2.4 3.1z"/>
					<path id="&lt;Path&gt;" class="s51" d="m716.2 401.1c0 0-6.4 66-28.4 104-22 38.1-35.6 38.2-35.6 38.2 0 0 19.3-34.8 37.5-74 18.2-39.1 26.5-68.2 26.5-68.2z"/>
					<path id="&lt;Path&gt;" class="s45" d="m699 397.6c0 0 0.8 67.1 32 102.9 0 0 3.5-48.8 2.2-70.7-1.3-21.9-21.3-19.5-21.3-19.5z"/>
					<path id="&lt;Path&gt;" class="s52" d="m764.3 309.7c-0.8 4.6-3.7 6.8-3.7 6.8 0 0-6.4-15.4-12.8-19-6.5-3.6-25 19.4-31.1 58.8-6 39.4-2 52-4.8 57.1-2.7 5-14.7-7.1-17-39.2-0.7-9.2-0.5-19.9 0.9-32.3 5.8-53 23.3-68.3 39.9-69.9 15.4-1.6 28.3 27.5 28.8 34.3 0.1 1.3 0 2.4-0.2 3.4z"/>
					<path id="&lt;Path&gt;" class="s53" d="m702.6 406.5c3-21.9 16.1 22.1 28 34 11.9 11.8-20.7-5.7-28-34z"/>
					<path id="&lt;Path&gt;" class="s54" d="m754.1 304.5c9.5 2.2 26.5 108.5 44.7 137.2 0 0-4 2.6-8.5 2.2v9.4c0 0-26 10.1-59.9 4.4l-1.8-6c0 0-9.6 1.1-16.7-1.1 0 0 0.5-30.9 5.8-83.7 5.3-52.8 36.4-62.4 36.4-62.4z"/>
					<path id="&lt;Path&gt;" class="s55" d="m647 133.5c0 0 2.5-7.4 8.2-9.5 5.7-2 19.7 5.5 22.7 10.4 3.1 4.9-13.3-0.3-21.2-0.9-7.8-0.6-9.7 0-9.7 0z"/>
					<path id="&lt;Path&gt;" class="s56" d="m630.2 133.5c0 0-1.8-7-7.2-8.1-4.5-0.8-10.8 3-11.1 4.3-0.3 1.3 0.2 5.7 0.5 7.7 0.3 2 7.9-9.4 17.8-3.9z"/>
					<path id="&lt;Path&gt;" class="s40" d="m649 152.5c-0.2 2.6 0 14.6 9.5 14.4 9.5-0.3 11.8-11.8 9.8-17.7-1.2-3.7-18-12.7-19.3 3.3z"/>
					<path id="&lt;Path&gt;" class="s40" d="m631.7 155.6c1 8.3-4.2 15.2-9.6 13.9-5.4-1.2-9.1-7.6-5.9-18.2 2.7-8.8 14-8.9 15.5 4.3z"/>
					<path id="&lt;Path&gt;" class="s57" d="m665.8 162.1q-0.2 0.2-0.5 0.5c-5.8 5.1-14.1 3.2-15.4-3.4-1-4.9-1.4-14.3 7.5-15.1 3.9-0.3 7 2.1 8.8 5.4 2.3 4.1 2.5 9.5-0.4 12.6z"/>
					<path id="&lt;Path&gt;" class="s57" d="m631.2 159.4c-0.1 2-1.6 4.5-3.7 6.2-2.8 2.2-6.9 3-10-0.7-5.4-6.5-1-18.1 5-18.8 2.9-0.3 5.1 1.1 6.5 3.5 1.6 2.5 2.3 6.1 2.2 9.8z"/>
					<path id="&lt;Path&gt;" class="s58" d="m665.8 162.1c-1.4 1.1-3.1 1.7-5 1.7-4.6 0-8.2-3.6-8.2-8.2 0-4.5 3.6-8.2 8.2-8.2 2.1 0 4 0.8 5.4 2.1 2.3 4.1 2.5 9.5-0.4 12.6z"/>
					<path id="&lt;Path&gt;" class="s59" d="m665.8 155.6c0 2.8-2.2 5.1-5 5.1-2.8 0-5.1-2.3-5.1-5.1 0-2.8 2.3-5 5.1-5 2.8 0 5 2.2 5 5z"/>
					<path id="&lt;Path&gt;" class="s60" d="m631.2 159.4c-0.1 2-1.6 4.5-3.7 6.2q-0.2 0-0.5 0c-3.7 0-6.6-3.7-6.6-8.2 0-4.6 2.9-8.2 6.6-8.2q1.1 0 2 0.4c1.6 2.5 2.3 6.1 2.2 9.8z"/>
					<path id="&lt;Path&gt;" class="s59" d="m631 157.4c0 2.8-1.8 5-4 5-2.3 0-4.1-2.2-4.1-5 0-2.8 1.8-5.1 4.1-5.1 2.2 0 4 2.3 4 5.1z"/>
					<path id="&lt;Path&gt;" class="s61" d="m649.7 151.2c0 0 0.3-4.9 7.3-6.1 7-1.2 10.4 7.1 10.4 7.1 0 0-1.1-9.3-10.6-10.1-9.5-0.7-7.1 9.1-7.1 9.1z"/>
					<path id="&lt;Path&gt;" class="s61" d="m630.6 153.5c0 0-1.2-10-9.6-10.2-8.4-0.2-5.4 10.2-5.4 10.2 0 0 0.2-6.6 5.4-7 7.4-0.4 9.6 7 9.6 7z"/>
					<path id="&lt;Path&gt;" class="s5" d="m653.3 156.8c0 0.7-0.6 1.2-1.3 1.2-0.6 0-1.2-0.5-1.2-1.2 0-0.7 0.6-1.2 1.2-1.2 0.7 0 1.3 0.5 1.3 1.2z"/>
					<path id="&lt;Path&gt;" class="s5" d="m621.8 158.6c0 0.7-0.5 1.2-1.2 1.2-0.7 0-1.2-0.5-1.2-1.2 0-0.7 0.5-1.2 1.2-1.2 0.7 0 1.2 0.5 1.2 1.2z"/>
					<path id="&lt;Path&gt;" class="s62" d="m631.8 140.5c0 0 1.6 16.8-1.6 27-3.2 10.2-9.5 8.3-10.2 14.3-0.8 6.1 2.1 12.2 4.6 13 2.5 0.9 6.5 2.7 10 2.1 3.6-0.6 6-4.7 10.8-4.8 4.9-0.1 7.3-4.6 6.6-8.5-0.6-3.9-4.2-6.1-4.2-6.1 0 0 3.6 3.2 3 7.8-0.6 4.7-5.8 5.2-10.9 6.6-5.2 1.4-12.6 1.3-15.1 0.2-2.5-1.2-4.5-9.2-3-12.3 1.5-3 7.9-5.2 10-12.3 2.2-7.1 0-27 0-27z"/>
					<path id="&lt;Path&gt;" class="s63" d="m647.8 176c0 0 5.2 6.2 3 11.2-2.1 5.1-8.2 6-14.8 7.6-6.6 1.6-12-0.2-14.2-3.9-2.1-3.7-2.2-9.6 1.1-12.5 3.3-2.9 7.9-5.1 8.3-11.5 0.4-6.4 0.2-10.6 3.3-12.2 3-1.5 13.3 21.3 13.3 21.3z"/>
					<path id="&lt;Path&gt;" class="s64" d="m640.3 193.8c0 0 0.4-1.5 3-2.8 2.7-1.3 4.3 0 4.3 0 0 0-1.3 3.3-7.3 2.8z"/>
					<path id="&lt;Path&gt;" class="s65" d="m620.4 186.5c0 0 1.1 3.4 6.6 6.1 5.5 2.8 15.8-1.9 20-2.9 4.1-1 4.4-6 4.4-6 0 0 1.7 14.9-9.3 18.9-11 4.1-10.7-5.6-16.3-7.8-5.6-2.2-5.4-8.3-5.4-8.3z"/>
					<path id="&lt;Path&gt;" class="s66" d="m647.6 177c-4-1.9-4.3 6.8-7.5 4.8-3.1-2-0.4-9.1 0-11.6 0.5-2.4 7.5 6.8 7.5 6.8z"/>
					<path id="&lt;Path&gt;" class="s5" d="m636.6 181.8c-0.5-1.7 2-1.8 2 0.3 0.1 2.2-1.5 1.4-2-0.3z"/>
					<path id="&lt;Path&gt;" class="s67" d="m613 170.9c-5 13.5 15.5 5.6 18.8-3.4 3.3-9 5.6-25.9-1.6-34-7.2-8.1-16.3 1.2-17 3-0.7 1.8 2.2 17.2 1.9 23.9-0.3 6.8-2.1 10.5-2.1 10.5z"/>
					<path id="&lt;Path&gt;" class="s66" d="m629.5 131.5c-2.2-6.5 21.3-4.4 21.3-4.4 0.1 0-7.6 26.1-8.9 25.1-1.2-1-5.2 1.3-12.4-20.7z"/>
					<path id="&lt;Path&gt;" class="s68" d="m651.4 131.5c-5.7 1.2-12.4 26.8-0.6 40.4 11.9 13.7 30.9-5.5 30.4-19.6-0.6-14-9.5-25.2-29.8-20.8z"/>
					<path id="&lt;Path&gt;" class="s69" d="m627 205.5c0 0 2.5 3.1 13.3 2 10.9-1 18.1-8.3 18.1-8.3 0 0-9.6 12.4-18.1 13.3-8.4 1-10.1-4-10.1-4z"/>
					<path id="&lt;Path&gt;" class="s70" d="m656.5 196.2c1.5-4.5 4.5 2 3.9 7-0.6 4.9-0.8-1-3.9-7z"/>
					<path id="&lt;Path&gt;" class="s40" d="m682.5 208.8c-13.5 16.4-35.4 32.6-46.6 29.3-2.7-0.8-5.3-2.7-7.7-5.5 0 0 21.4-2 31.4-6.2 9.4-4 21.4-16.1 22.9-17.6z"/>
					<path id="&lt;Path&gt;" class="s66" d="m689.7 171.9c-10.1-11.4-21 21.9-25.1 40.7-4.2 18.9 10.7 3.2 19.3-9 8.6-12.2 5.8-31.7 5.8-31.7z"/>
					<path id="&lt;Path&gt;" class="s66" d="m665.8 110.7c-12.5-0.2-1.4 13.3 4.2 17.2 5.5 3.9 10.9 8.6 10.9 8.6z"/>
					<path id="&lt;Path&gt;" class="s71" d="m649.4 243.7c1.4 21.6 18 25.5 27.6 9.1 9.6-16.5 5.8-37.3 5.8-37.3l-0.8-6.1c0 0-15.6 21.7-33 26.6z"/>
					<path id="&lt;Path&gt;" class="s72" d="m605 126.8c0 0 1-16.6 42-21.9 41-5.3 67.7 20 69.2 20.4 1.5 0.4 8.4 9.6 8.4 9.6 0 0-45.5-24.1-79.8-19.6-34.2 4.6-32.7 13.8-34.8 17-2.2 3.1-5.5 1.2-5.5 1.2 0 0 0.1-4.8 0.5-6.7z"/>
					<path id="&lt;Path&gt;" class="s72" d="m638.3 80.1c0 0 22.9-6.5 51.8 2.8 29 9.3 35.2 32.3 35.5 36.6 0.3 4.4-4.5 3.1-4.5 3.1 0 0 7.9 6.7 15.3 2.4 7.4-4.3 19.1-27.9 19.5-29.8 0.4-1.9-15.2 10.2-22.8 10.7-7.6 0.5 8.4-6.5 7.9-16.6-0.5-10.1-35.7-8.2-59.8-10.4-24.1-2.2-34.7-2.7-42.9 1.2z"/>
					<path id="&lt;Path&gt;" class="s73" d="m696 250.5v0.1c-6.2 21.3-18.5 51.2-35.5 42.8-17-8.3-14.3-34.8-14.3-34.8 0.8-7.1 3.8-11.7 3.8-11.7v5.1c0 0-2.2 28.5 14.4 26.8 16.7-1.8 22.2-42.5 22.2-42.5 0 0-0.2-0.8 1.2 0 1 0.6 2.1 6.4 8.2 14.2z"/>
					<path id="&lt;Path&gt;" class="s74" d="m721.1 122.6c0 0-6.8-17.8-18.9-28.7-12.1-11-25.6-9.4-29.9-4.3-4.4 5 10.8 10.2 26.3 21.1 15.6 10.9 22.2 14.6 22.2 14.6z"/>
					<path id="&lt;Path&gt;" class="s75" d="m703.1 94.7c-8.1-2.7 2 14.3 6.9 22 4.8 7.6 10.8 8.6 10.8 8.6 0 0-1.6-7.7-8-18.7-6.4-11-9.7-11.9-9.7-11.9z"/>
					<path id="&lt;Path&gt;" class="s76" d="m764.3 309.7c-0.8 4.6-3.7 6.8-3.7 6.8 0 0-6.4-15.4-12.8-19-6.5-3.6-25 19.4-31.1 58.8-6 39.4-2 52-4.8 57.1-2.7 5-14.7-7.1-17-39.2 0.3 1.6 5.9 27.6 12 20.3 6.3-7.5 0.5-20.7 11-57.1 10.5-36.4 23.6-55.8 32.9-51.1 9.4 4.7 13.5 23.4 13.5 23.4z"/>
					<path id="&lt;Path&gt;" class="s77" d="m623.6 298.5c0 0-0.5 38.8 19.5 60.7 17.8 19.4 33.9 9.6 33.9 9.6 0 0-18.5 16.9-36.7 5.3-22.4-14.3-16.7-75.6-16.7-75.6z"/>
					<path id="&lt;Path&gt;" class="s78" d="m706.9 792.9c0 0 28.3 19.7 48.4 19.1 20-0.5 24.3-17 24.3-17 0 0 1.6 14.4-9.7 27.6-11.2 13.3-30.5-5-39-12.8-8.5-7.7 1.3 3 0 4.5-1.3 1.6-24-21.4-24-21.4z"/>
					<path id="&lt;Path&gt;" class="s79" d="m737.5 811.3c0 0 17.4 8.7 20.3 8.4 2.9-0.4-1.2-3.4 1-4.1 2.1-0.6 8.3 2.8 9.5 1.2 1.1-1.7-3.3-0.9 2.2-5.5 5.6-4.5 6.9-8.4 6.9-8.4 0 0-1.5 19.8-14.7 21.8-13.1 2-25.2-13.4-25.2-13.4z"/>
					<path id="&lt;Path&gt;" class="s80" d="m728.6 451.7c0 0-1.3-108.5 0-122.8 1.3-14.3-11.7 24.1-10.7 49.7 1 25.5 10.7 73.1 10.7 73.1z"/>
					<path id="&lt;Path&gt;" class="s81" d="m790.3 443.9c0 0-33.1-104.6-34.1-127.4-1-22.9 13.5 50.4 28 87.8 14.6 37.4 14.6 37.4 14.6 37.4z"/>
					<path id="&lt;Path&gt;" class="s82" d="m667.5 800.6c0 0-5.2 9.2-19.2 17.1-13.9 7.8-23.6 2.4-27.4 3.9-3.7 1.4 15.7-10 27-15.8 11.3-5.8 22.9-15 22.9-15z"/>
					<path id="&lt;Path&gt;" class="s79" d="m665.4 799.2c-0.9-1.7-19.3 13.8-23.4 16.6-4.1 2.7-2.6-2.4-3.8-2.3-1.3 0.1-4 3.4-6.9 4.3-2.9 0.9-6 2-6 2 0 0 11.5 2.1 21.9-3.2 10.4-5.3 18.2-17.4 18.2-17.4z"/>
					<path id="&lt;Path&gt;" class="s83" d="m738.6 464.7c0 0-19.6 76.5-44.1 101.9-24.5 25.4-46.9 18.9-46.9 18.9 0 0 29.6-4.3 52.3-44.4 22.8-40 34.9-89.4 34.9-89.4z"/>
					<path id="&lt;Path&gt;" class="s84" d="m618.8 463.9c0 0-15.9-76.2-17.4-95.1-1.5-18.9 0-30.4 0-30.4 0 0 13.1 59.6 17.6 73.3 4.4 13.6-0.2 52.2-0.2 52.2z"/>
					<path id="&lt;Path&gt;" class="s40" d="m698.6 394.5c-7.9-23.1 0.4-74.3 6.5-86.4 6.1-12.1 12.4 17.1 12.8 35.1 0.3 17.9-5.2 50.2-6 57.9-0.7 7.8-9.9 3.2-13.3-6.6z"/>
					<path id="&lt;Path&gt;" class="s49" d="m733.2 321.6c17.5-28.9 28 0.2 34.6 26.4 6.5 26.2 1.5 21.5-7.3 7.1-8.7-14.3-9.5 40.6-21.9 62.2-12.5 21.7-19.5-25.1-18.2-53.8 1.3-28.7 12.8-41.9 12.8-41.9z"/>
					<path id="&lt;Path&gt;" class="s31" d="m618.8 629.8c-7.9-0.3-5.5-14.6-2.6-17.2 2.9-2.5 8.4 7.9 9.2 11.9 0.8 4-5.3 5.4-6.6 5.3z"/>
					<path id="&lt;Path&gt;" class="s31" d="m725.9 645.9c0.2-3.3 11.3 2.4 12.7 3.8 1.3 1.5-3.6 5.8-5.7 4.8-2.2-1-7.1-6.6-7-8.6z"/>
					<path id="&lt;Path&gt;" class="s85" d="m640.3 341.9c17.3 12.4 47.5-52.8 62.3-67.8 14.8-15 8.5 3.2-1.9 27.5-10.4 24.2-23.3 67.6-36.6 67.2-13.3-0.3-23.8-26.9-23.8-26.9z"/>
					<path id="&lt;Path&gt;" class="s86" d="m790.5 875.4c-1.5 6.8-51.4 18.4-68.5 0-6.1-20.6-16.9-66.1-21.7-103-6.1-47-5.3-79.6-13.3-119.5 0.3-9.6 25.9 72.5 38.9 88.4 13.1 16 37.7 1.6 44.5 8.8 6.8 7.2 21.6 118.4 20.1 125.3z"/>
					<path id="&lt;Path&gt;" class="s87" d="m682.7 672.7c-1.6 20.1-3 47.3-2.8 80.4 0.1 14.7 0.1 28.6 0.1 41.4 0 52.3-0.6 86.3-0.6 86.3-28.6 17-63.2 2.6-66.5 0-3.3-2.7 2.5-123.5 2.3-131.6-0.2-4-0.8-8-1.3-12.1 13.6 3.1 14.7 7.9 29.6-14.7 20.1-30.6 39.9-63.7 39.2-50.4q0 0.3 0 0.7z"/>
					<path id="&lt;Path&gt;" class="s34" d="m675.8 615c-4.9-7.2-7.4 14.7-1.8 31.6 5.6 16.9 9.9 15.4 9.9 15.4l1.5-16.8c0 0-5.9-24.7-9.6-30.2z"/>
					<path id="&lt;Path&gt;" class="s88" d="m618.4 877.2c5 8 42.4 4.5 48.3-1.8 5.9-6.3 11.4-59.8 11.4-59.8 0 0-13.5 40.8-25.6 52.6-12.1 11.8-34.1 9-34.1 9z"/>
					<path id="&lt;Path&gt;" class="s89" d="m712.3 712.5c0.1-18.9 40.7 12.2 48.2 22.6 7.6 10.4-5.4 18-24.1 14.2-18.7-3.8-24.1-36.8-24.1-36.8z"/>
					<path id="&lt;Path&gt;" class="s89" d="m615 722.3c3 21 16.2 23.8 30.7-11.2 14.4-35.1-19.8-22.9-24.3-17.2-4.6 5.6-6.4 28.4-6.4 28.4z"/>
					<path id="&lt;Path&gt;" class="s90" d="m698.9 750.3c4.4-19.9 23.4 67.6 39.7 99.6 16.3 32-32.3 14.3-39.7-99.6z"/>
					<path id="&lt;Path&gt;" class="s34" d="m682.1 678.8c0 0-9.8 41.3-12.9 52.3-3 11 11.1 62.5 10.7 65.9-0.4 3.5-1.5-61.4 0-80.1 1.5-18.8 2.2-38.1 2.2-38.1z"/>
					<path id="&lt;Path&gt;" class="s91" d="m776.6 763.4c-11.8-41.5-12.3 56.3-4.8 78.5 7.6 22.2 20.6 33.5 20.6 33.5 0 0-6.8-80-15.8-112z"/>
					<path id="&lt;Path&gt;" class="s0" d="m769.5 751.7c-2.7-5.3-22.3-5-30.7 10.4-6.4 11.7 5.2 28.4 6.2 30.9 1 2.4 12 4.2 17.7-3.7 5.8-7.8 8.2-34.8 6.8-37.6z"/>
					<path id="&lt;Path&gt;" class="s0" d="m613.9 737.1c1.7-3.8 13.8 6.1 16.8 18.3 2.9 12.1-8.4 32.2-11.3 31.8-2.8-0.4-4.5-34.3-4.2-38 0.2-3.7-1.3-12.1-1.3-12.1z"/>
					<path id="&lt;Path&gt;" class="s92" d="m595.2 625.6c0.3 2.3 13.1 11.4 12.4 18.9-0.8 7.4-5.3 15.7-8.9 14.2-3.5-1.5-19.4-25.2-18.9-29.5 3.3 2.5 13.3-2.3 15.6-9.6 2-6.7 6.1-18.1 8-22.6-0.9 2.9-8.4 26.5-8.2 28.6z"/>
					<path id="&lt;Path&gt;" class="s92" d="m619.4 605.5q0.1 1.2 0.4 2.5 0.1 0 0 0c0.5 2.2-8.7 5.3-12 4.7 0.1-1.4 0.2-3.1-0.2-5.3-1.1-6.8-3.8-10.3-4-10.6 0.1-0.3 0.2-0.6 0.3-0.8 1.5-3.1 12.9-13 16.9-14.6q0.4 0.5 0.5 0.9c0.2 2.3-2.7 15.6-1.9 23.2z"/>
					<path id="&lt;Path&gt;" class="s93" d="m731.9 632.8c-1.7-0.9-3.7-0.6-3.8-1.7-0.1-1.1-2.2-16.9-2.2-19.3 0.1-2.3 3.6 17.7 5.1 18.6 1.5 1 14.6 2.7 14.6 2.7 0 0-10 1-13.7-0.3z"/>
					<path id="&lt;Path&gt;" class="s93" d="m730.9 614.1c0 0 7.5 15.2 8.8 16.5 1.3 1.4 16 2.2 16 2.2 0 0-7.9 1.1-12.4 0-4.4-1.1-4.7-0.6-6-3.9-1.2-3.2-6.4-14.8-6.4-14.8z"/>
					<path id="&lt;Path&gt;" class="s93" d="m743.3 612.3c0 0 2.8 13.5 3.3 15.1 0.5 1.5 20.6 0.7 20.6 0.7 0 0-15.1-0.7-17.7-1.9-2.7-1.2-6.2-13.9-6.2-13.9z"/>
					<path id="&lt;Path&gt;" class="s92" d="m771.5 623.2c-1.1 5.1-4.7 4.9-4.7 4.9 0 0-0.8 4-2.8 4.7-2.1 0.7-10.5-0.5-16.9 0.2-6.4 0.7-15.2-0.2-15.2-0.2 0 0 11 7.4 9.9 13.6-1.1 6.2-6.4 11.1-11.2 5.8-4.3-4.7-12.9-12-14.6-15.8l-0.2-0.7c0 0 10.3-2.4 10.6-3.8 0.2-1.5-0.5-18.3-0.5-18.3l2.2 17.5 2-0.9c0 0 5.3 0.8 9.6 0.4 4.3-0.3 7.4-2.9 7.4-2.9 8 0.1 11.2-13.7 11.2-13.7 9.5-0.1 14.4 4.2 13.2 9.2z"/>
					<path id="&lt;Path&gt;" class="s66" d="m717.2 576c9.1-13.6 24 0.8 26.5 5.7 2.6 4.8-14.3 23.1-19.4 22.8-5.1-0.2-11.3-19.4-9.6-22.8 1.7-3.4 2.5-5.7 2.5-5.7z"/>
					<path id="&lt;Path&gt;" class="s94" d="m652.5 923.6c-5.2 4.3-12.8 9.2-18.9 8.8-10.6-0.6-25-21.5-29.6-16 10.2-11.4 14.2-21.4 17.2-15.4 0 0 8.6 18.4 18.3 20.3 9.6 1.9 10-18.3 10-18.3 0 0 2.5-1 3.2 2.6 0.6 2.7-2.4 7.4-0.2 18z"/>
					<path id="&lt;Path&gt;" class="s95" d="m785.6 914.1c-11.8 0.7-31.4 6.4-35.8 4.8 0.9-4.4 1.6-7.5 2-8 0 0 1.6 1 4-1.7 2.5-2.6 19.2-21.6 28.8 2.5q0.5 1.2 1 2.4z"/>
					<path id="&lt;Path&gt;" class="s90" d="m767.7 731.7c0 0 0.9 18.5 2.2 27.1 1.4 8.6 11.2 22.2 11.2 22.2z"/>
					<path id="&lt;Path&gt;" class="s85" d="m811.3 478.4c-9.1-1.9-28 38.2-29.1 49.2-1.2 11 32.9 32.2 37.8 27.8 5-4.4 7.5-70.5-8.7-77z"/>
					<path id="&lt;Path&gt;" class="s85" d="m615 106.8c-1.1 4 34.8-7.6 47.7-13.6 12.9-6.1 19.8-9.5 19.8-9.5 0 0-29.6-7.5-49-2.3-19.4 5.1-18.5 25.4-18.5 25.4z"/>
					<path id="&lt;Path&gt;" class="s85" d="m647.6 77.2c0 0 33.5 0.5 64.8 2.3 31.4 1.8 37.2 0 37.2 0 0 0-16.7-11.8-48.2-12.4-31.4-0.7-53.8 10.1-53.8 10.1z"/>
					<path id="&lt;Path&gt;" class="s72" d="m669.8 117.5c0 0 36.4 34.5 38.8 42.3l-1.7 0.9c0 0-29.9-22.1-37.1-43.2z"/>
					<path id="&lt;Path&gt;" class="s96" d="m734.2 192.6c0 0-2.8-20.9-11.9-37.5-9.1-16.7-29.8-27.3-29.8-27.3 0 0 28.1 9.9 37.2 29.6 9.1 19.7 4.5 35.2 4.5 35.2z"/>
					<path id="&lt;Path&gt;" class="s97" d="m734.2 194.8c0 4.3-0.8 13.6-5.5 19.4-6.2 7.8-28.4 8.7-21.2 3.9q0.5-0.3 1.1-0.9 0-0.1 0-0.1c0 2.8 16.8-2 20.5-6.7 3.7-4.6 5.1-17.8 5.1-17.8 0 0 0 0.9 0 2.2z"/>
					<path id="&lt;Path&gt;" class="s98" d="m744.3 208c-2.7 7-16 14.4-12.7 4.6 1.8-5.4 2.4-10.9 2.6-14.7v12.9c0 7.3 8.2-1.2 10-7.8 1.6-5.9 0.3-16.5 0.1-18.2 1.8 11 1.2 20 0 23.2z"/>
					<path id="&lt;Path&gt;" class="s99" d="m682.5 254.7c3-17.2 7.1-2 7.6 6.7 0.5 8.7-13.5 39.2-29.6 32 0 0 8.1 6.7 16.5-0.2 8.3-6.8 19-42.6 19-42.6 0 0-4.5-5.7-6.2-10.4-1.7-4.7-3.2-3.9-3.2-3.9 0 0-3.9 10.7-4.1 18.4z"/>
					<path id="&lt;Path&gt;" class="s85" d="m647.6 585.5c-5.6 2.1 4 8.6 17.8 7.7 13.8-0.9 36.2-24.6 40.9-35.5 4.6-10.9-18.4 16-33.5 23.5-15.2 7.6-21.8 3-25.2 4.3z"/>
					<path id="&lt;Path&gt;" class="s85" d="m630.7 548.7c-5.1 8.5 7.2 30.5 15.3 35 8.1 4.6 47.9-22.4 53-47 5.1-24.6-68.3 12-68.3 12z"/>
					<path id="&lt;Path&gt;" class="s85" d="m746.6 441.8c-8.2-26.5 8.6-84.1 13.9-86.7 5.4-2.6 29.2 84.2 29.8 93.3 0.6 9.1-38.4 10.7-43.7-6.6z"/>
					<g id="&lt;Group&gt;">
						<path id="&lt;Compound Path&gt;" fill-rule="evenodd" class="s100" d="m606.7 140.1c5.3-2.5 23.3-6.6 24.4 4.7 1.3 12.4 1 34.3-12.9 33.5-13.5-0.7-15.9-36.1-11.5-38.2zm18.3 33.5c5.9-4.8 5.6-19.4 3.6-27.1-1.9-7.6-20-8.6-21.9-3-4.8 14.9 6.4 39.7 18.3 30.1z"/>
						<path id="&lt;Compound Path&gt;" fill-rule="evenodd" class="s100" d="m644.1 137.9c6.4-8.7 38.3-6.6 41.9 1.7 3.6 8.3-3.2 40.9-23.7 37.8-19.6-2.9-20.9-35.9-18.2-39.5zm19.8 37.4c15.6-1.4 24.4-21.9 18.5-33.2-5.8-11.3-32.9-9.2-35.9-1.7-4 10.1 2.4 36.3 17.4 34.9z"/>
						<path id="&lt;Path&gt;" class="s100" d="m643.3 149.6c0 0-0.7-4.3-7.1-4-4.1 0.3-4.9 4.9-5.8 4.8-1-0.1-0.7-6.4 4.3-7.5 5.2-1.1 12.1 4.3 8.6 6.7z"/>
						<path id="&lt;Path&gt;" class="s100" d="m686.9 144.3c0 0 22.9 10.6 25.1 10.9 2.2 0.4 4.3 4 4.3 4 0 0-4.3-0.6-8.1 1-3.7 1.6-21-7.6-21.8-8.6-0.8-1 0.5-7.3 0.5-7.3z"/>
						<path id="&lt;Path&gt;" class="s101" d="m676.6 168c4.6-6.2 8.2-23.3 0.8-29.2-6.7-5.3-24.1-2.6-27.4-0.8-8 4.5-1.8 27.5 7.1 34.5 9 7.2 19.5-4.5 19.5-4.5z"/>
						<path id="&lt;Path&gt;" class="s101" d="m624.8 171.9c5-5.8 6.6-20.7 2.5-25.8-4.8-6.1-18-5.2-19.6-3.6-4.4 4.6-0.8 21.4 3.7 26.8 4.5 5.5 11 5.3 13.4 2.6z"/>
						<path id="&lt;Path&gt;" class="s5" d="m677.3 162c4.6 2.8-5.6 10.2-10.2 10.5-4.5 0.3 5.6-13.3 10.2-10.5z"/>
						<path id="&lt;Path&gt;" class="s5" d="m626.8 166.2c2.5 2.8-4.4 9.2-8.8 6.7-2-1.1 5-11.1 8.8-6.7z"/>
					</g>
					<path id="&lt;Path&gt;" class="s40" d="m612 174.8c0 0 1 5.1 4.4 7 3.4 2 8.8-6.4 8.8-6.4 0 0-7.2 4.9-13.2-0.6z"/>
					<path id="&lt;Path&gt;" class="s40" d="m646.3 162.4c0 0 3.2 13.9 16.4 18.4 13.2 4.5 21-19.2 21-19.2 0 0-5.3 12.9-19.1 14.4-13.9 1.5-18.3-13.6-18.3-13.6z"/>
					<path id="&lt;Path&gt;" class="s85" d="m792.4 368.8c-9 2.2-0.4 43.7 16.6 80.2 17.1 36.6 10.5-24.3 4.1-47.9-6.3-23.5-20.7-32.3-20.7-32.3z"/>
					<path id="&lt;Path&gt;" class="s102" d="m649.9 254.8c0.8-1.9-0.4 15.1 8.5 21.2 4 2.7 7 2.6 7 2.6 0 0-25.1 9.7-15.5-23.8z"/>
					<path id="&lt;Path&gt;" class="s45" d="m678.1 354.5c9.7-20.7 19.4-49.9 22.6-52.9 3.2-3.1-5.5 38.2-6.2 53.5-0.6 15.3-17.5 1.7-16.4-0.6z"/>
					<path id="&lt;Path&gt;" class="s45" d="m620.2 425.1c-3.8 5.3-14.8-20.9-17.1-43.2-2.2-22.2 9.7 16.7 15.3 28.4 5.6 11.7 1.8 14.8 1.8 14.8z"/>
					<path id="&lt;Path&gt;" class="s103" d="m696.9 678.8c0 0 5.9 9.2 21.8 17.1 16 7.8 27.1 2.5 31.4 3.9 4.3 1.4-18-10-30.9-15.8-12.8-5.8-26.1-15-26.1-15z"/>
					<path id="&lt;Path&gt;" class="s104" d="m699.3 677.4c1-1.7 22 13.8 26.6 16.6 4.7 2.8 3.1-2.4 4.5-2.3 1.4 0.1 4.5 3.4 7.8 4.3 3.3 0.9 6.8 2 6.8 2 0 0-13.1 2.1-25-3.2-11.9-5.2-20.7-17.4-20.7-17.4z"/>
					<path id="&lt;Path&gt;" class="s105" d="m620.8 678.8c0 0 16.5-8.9 26.7-6.1 10.3 2.7 16.6 8.6 16.6 8.6 0 0-14.7 1.4-25.1 3.3-10.4 2-18.2-5.8-18.2-5.8z"/>
					<path id="&lt;Path&gt;" class="s104" d="m658.6 680.3c0 0-4.2-3.8-9.3-4.5-5.2-0.8 1 2.6-0.7 2.3-1.7-0.4-9.5-2.7-12.7-2.4-3.2 0.2-7.7 2.9-8.4 2.8-0.7-0.1 1.9-2 1-2-0.9 0-5.7 2.3-5.7 2.3 0 0 4.3 3.3 13.1 4.1 8.8 0.8 22.7-2.6 22.7-2.6z"/>
					<path id="&lt;Path&gt;" class="s75" d="m713.9 97.4c-6.3-8.1 9.7-15.1 19-12.7 9.3 2.4 3 11.6-1.8 17.1-4.8 5.6-9.6 5.3-17.2-4.4z"/>
					<path id="&lt;Path&gt;" class="s75" d="m725.6 123.6c0.7-7.8 18.7-10.5 19.8-11.1 1.1-0.5-4.6 10.7-10 13.1-5.5 2.4-9.8-1.4-9.8-1.4z"/>
					<path id="&lt;Path&gt;" class="s106" d="m711.9 290.8c-7.4 19.3 13.9 2.8 27.4-2.9 13.5-5.8 4.1-15.5-2.1-16-6.1-0.4-21.3 8.5-25.3 18.9z"/>
					<path id="&lt;Path&gt;" class="s45" d="m713.1 405.1c0 0 8.3-66.3 20.1-83.5 11.8-17.2 18.8-20.2 18.8-20.2 0 0 2-6.5-8-5.1-10 1.4-38.3 48.1-30.9 108.8z"/>
					<path id="&lt;Path&gt;" class="s107" d="m809.5 388.8c-2.9-8.2 23.2 11.5 27.2 30.9 4.1 19.5-12.9 21.8-12.9 21.8 0 0-8.4-36.2-14.3-52.7z"/>
					<path id="&lt;Path&gt;" class="s108" d="m574.7 937.7c-2.3 6 15.7-4.6 24-9.7 8.4-5.1 13.2-20.5 13.2-20.5 0 0-10.7 12.1-15.8 17.1-5.1 4.9-21.4 13.1-21.4 13.1z"/>
					<path id="&lt;Path&gt;" class="s108" d="m760.5 910.8c-4.1 12-1.1 24.8 1.4 26.1 2.6 1.2 10.9-4.3 20.6-1 9.8 3.3 6.7-10.3 0-24.2-6.7-14-19.2-8.7-22-0.9z"/>
					<path id="&lt;Path&gt;" class="s109" d="m730.9 526.6c0.6 20.2 30.3-24.1 33.4-43.8 3.1-19.7-24.1-17.5-26.8-15.1-2.7 2.3-7.1 43.5-6.6 58.9z"/>
					<path id="&lt;Path&gt;" class="s110" d="m678.3 117.8c-4-0.2 8.3 17.6 20.3 27.3 12.1 9.7 16.9 5.3 16.9 5.3 0 0-14.2-19.7-22.1-23.6-7.9-3.9 14.7 7.6 21.3 12.3 6.6 4.6 9.6 1.3 7.6-2.6-2.1-3.8-24.1-17.6-44-18.7z"/>
					<path id="&lt;Path&gt;" class="s111" d="m766.8 961.7c-6.6-1.7-18.2 1.8-19.7 6.5-1.5 4.7-7.4 6.6-5.2 8.1 2.2 1.4 16.8 1.5 20.7 0 4-1.5 4.2-14.6 4.2-14.6z"/>
					<path id="&lt;Path&gt;" class="s111" d="m588.4 976.4c8.1-0.1 2-8.3 11.6-10.8 9.6-2.4 31.8 0.6 35.1 1.6 3.3 1 4.1 8.8 4.1 8.8z"/>
					<path id="&lt;Compound Path&gt;" class="s112" d="m749.8 918.9c-1.6 7.4-3.5 18.5-4.8 26.5-0.5 3.4-1.2 6.5-1.8 9.2-0.7 2.5-1.4 5.1-2.2 7.7q-0.9 2.7-1.5 5c-1.6 1.6-2.6 10.4-2.6 10.4h71c0 0-0.5-10.8-3.8-14.3q0 0 0-0.1c-0.2-0.6-0.9-3-2.2-6.2-3.3-9.1-9.8-26.6-16.3-43q-0.5-1.2-1-2.4c-0.7-1.9-1.5-3.4-2.3-4.8-0.5-2.6-1.4-8.3-2.5-14.8l-0.9-5.6q0 0 0 0c6.6-2.1 12.6-5.1 16.9-9.3 0 0-8.3-63-15.3-97.1 0.4 0.5 0.6 0.9 0.6 0.9l-2.2-8.1c-0.1-0.7-0.3-1.4-0.4-2q-0.2-0.7-0.4-1.4-0.8-3.3-1.5-6.1c-2.4-9.1-5.6-19.9-8.9-31.7q-1.6-5.3-3.2-10.8c-20.9 26.2-42 47.5-62.7 61.9 5.2 34.6 14.6 73.9 20.2 92.6 1.6 5.6 2.9 9.4 3.7 10.5 1.5 2.4 11.1 4.4 23.1 4.6q0.6 0 1.2 0 0 0 0 0-0.6 0-1.2 0l2.8 7.2c0.6 3.9 1.1 8.4 1 13.4-0.5 0-0.8-0.2-0.8-0.2-0.4 0.5-1.1 3.6-2 8zm-136.1-124.5c-1.4 37.5-2.8 84.8-0.8 86.4 1 0.8 4.8 2.7 10.5 4.4l-1.3 10.8c-0.3 1.7-0.5 3.4-0.9 5-2.8-5.7-6.5 2.8-15.4 13.3-1.6 1.8-3.4 3.8-5.1 5.6q-1.2 1.2-2.5 2.3c-4.9 4.6-13.8 9.9-23.5 15.4q0 0.1 0 0.1c-2.2 1.2-4.5 2.5-6.8 3.8-13.8 7.7-27.6 15.3-32.6 20.8-1.1 1.2-1.8 2.3-2 3.3q0 0.1 0 0.1c0 0-1.6 2.4-3.3 5-1.6 2.7-3.3 5.6-3.3 6.6 0 1.1 28.3-0.1 61.7-0.9l50.8-0.4c11.6 0.2 22.4 0.6 31.5 1.3 0 0-0.8-7.8-4-11.6 0 0-0.1-0.6-0.4-1.7-0.8-3.6-3.3-13-9.8-28.1q-0.2-0.5-0.4-1c-1.8-4.4-2.9-8.1-3.6-11.3-2.2-10.6 0.8-15.3 0.2-18-0.4-2.1-1.5-2.6-2.3-2.7 0.3-4 0.6-9.5 0.8-14 9.2-0.4 19-2.6 28.2-8.1 0 0 0.6-33.7 0.6-85.5-23 10.4-45.4 11.1-66.3-0.9z"/>
					<path id="&lt;Path&gt;" class="s113" d="m628.5 603.7l-0.1 0.8-0.3 2c-0.4 2.3-0.9 5.5-1.5 9.4-0.3 2.1-0.6 4.4-0.9 6.9-1.5-3.6-4.6-9.5-5.9-14.8q0.1 0 0 0-0.3-1.3-0.4-2.5c-0.8-7.6 2.1-20.9 1.9-23.2q-0.1-0.4-0.5-0.9c-2.7-3.2-15.7-10.7-16.4-17.2-0.2-2.5 1.8-9.4 4.7-18.4 3.1-9.5 7.3-21.3 10.9-32.7 0.6 15.2 1.6 29.2 3 39.5 3 21.5 3.1 32.8 2.6 39.2-0.4 5.9-1.3 7.6-1 9.3 0.1 0.7 1.5 1.6 3.9 2.6z"/>
					<path id="&lt;Path&gt;" class="s113" d="m650 248.1q0 0.2 0.1 0.4-0.1 0.1-0.1 0.2z"/>
					<path id="&lt;Path&gt;" class="s113" d="m754.1 304.5q0-0.1 0-0.1-0.3-0.5-0.7-1.1 0.5 0.6 0.8 1.2 0 0-0.1 0z"/>
				</g>
			</g>
		</g>
	</g>
</svg>